<mxfile host="Electron" agent="Mozilla/5.0 (Windows NT 10.0; Win64; x64) AppleWebKit/537.36 (KHTML, like Gecko) draw.io/26.0.16 Chrome/132.0.6834.196 Electron/34.2.0 Safari/537.36" version="26.0.16">
  <diagram name="第 1 页" id="wJz072Y5yiNHRC675SkC">
    <mxGraphModel dx="428" dy="281" grid="1" gridSize="10" guides="1" tooltips="1" connect="1" arrows="1" fold="1" page="1" pageScale="1" pageWidth="827" pageHeight="1169" math="0" shadow="0">
      <root>
        <mxCell id="0" />
        <mxCell id="1" parent="0" />
        <mxCell id="28_3heoowWubc0l6zlZu-1" value="" style="rounded=0;whiteSpace=wrap;html=1;" parent="1" vertex="1">
          <mxGeometry x="40" y="120" width="440" height="240" as="geometry" />
        </mxCell>
        <mxCell id="28_3heoowWubc0l6zlZu-2" value="&lt;span style=&quot;color: rgb(184, 191, 198); font-family: Monaco, Consolas, &amp;quot;Andale Mono&amp;quot;, &amp;quot;DejaVu Sans Mono&amp;quot;, monospace; orphans: 4; text-align: left; white-space-collapse: preserve; background-color: rgba(0, 0, 0, 0.05);&quot;&gt;UnicastRemoteObject&lt;/span&gt;" style="text;html=1;align=center;verticalAlign=middle;whiteSpace=wrap;rounded=0;fontSize=18;" parent="1" vertex="1">
          <mxGeometry x="145" y="120" width="230" height="30" as="geometry" />
        </mxCell>
        <mxCell id="28_3heoowWubc0l6zlZu-3" value="" style="rounded=0;whiteSpace=wrap;html=1;fillColor=#60a917;fontColor=#ffffff;strokeColor=#2D7600;" parent="1" vertex="1">
          <mxGeometry x="80" y="160" width="360" height="160" as="geometry" />
        </mxCell>
        <mxCell id="28_3heoowWubc0l6zlZu-4" value="&lt;span style=&quot;color: rgb(184, 191, 198); font-family: Monaco, Consolas, &amp;quot;Andale Mono&amp;quot;, &amp;quot;DejaVu Sans Mono&amp;quot;, monospace; orphans: 4; text-align: left; white-space-collapse: preserve; background-color: rgba(0, 0, 0, 0.05);&quot;&gt;UnicastServerRef&lt;/span&gt;" style="text;html=1;align=center;verticalAlign=middle;whiteSpace=wrap;rounded=0;fontSize=18;" parent="1" vertex="1">
          <mxGeometry x="80" y="160" width="160" height="30" as="geometry" />
        </mxCell>
        <mxCell id="28_3heoowWubc0l6zlZu-5" value="" style="rounded=0;whiteSpace=wrap;html=1;fillColor=#1ba1e2;fontColor=#ffffff;strokeColor=#006EAF;" parent="1" vertex="1">
          <mxGeometry x="120" y="190" width="280" height="100" as="geometry" />
        </mxCell>
        <mxCell id="28_3heoowWubc0l6zlZu-6" value="&lt;span style=&quot;color: rgb(184, 191, 198); font-family: Monaco, Consolas, &amp;quot;Andale Mono&amp;quot;, &amp;quot;DejaVu Sans Mono&amp;quot;, monospace; orphans: 4; text-align: left; white-space-collapse: preserve; background-color: rgba(0, 0, 0, 0.05);&quot;&gt;LiveRef&lt;/span&gt;" style="text;html=1;align=center;verticalAlign=middle;whiteSpace=wrap;rounded=0;fontSize=18;" parent="1" vertex="1">
          <mxGeometry x="120" y="190" width="80" height="30" as="geometry" />
        </mxCell>
        <mxCell id="28_3heoowWubc0l6zlZu-7" value="" style="rounded=0;whiteSpace=wrap;html=1;" parent="1" vertex="1">
          <mxGeometry x="145" y="220" width="95" height="50" as="geometry" />
        </mxCell>
        <mxCell id="28_3heoowWubc0l6zlZu-8" value="" style="rounded=0;whiteSpace=wrap;html=1;" parent="1" vertex="1">
          <mxGeometry x="260" y="220" width="130" height="50" as="geometry" />
        </mxCell>
        <mxCell id="l71zYAK4t5FfDWTP5Ww3-1" value="ObjID" style="text;html=1;align=center;verticalAlign=middle;whiteSpace=wrap;rounded=0;fontSize=13;" vertex="1" parent="1">
          <mxGeometry x="145" y="220" width="40" height="20" as="geometry" />
        </mxCell>
        <mxCell id="l71zYAK4t5FfDWTP5Ww3-2" value="&lt;span style=&quot;color: rgb(184, 191, 198); font-family: Monaco, Consolas, &amp;quot;Andale Mono&amp;quot;, &amp;quot;DejaVu Sans Mono&amp;quot;, monospace; orphans: 4; text-align: left; white-space-collapse: preserve; background-color: rgba(0, 0, 0, 0.05);&quot;&gt;TCPEndpoint&lt;/span&gt;" style="text;html=1;align=center;verticalAlign=middle;whiteSpace=wrap;rounded=0;fontSize=14;" vertex="1" parent="1">
          <mxGeometry x="260" y="220" width="90" height="20" as="geometry" />
        </mxCell>
        <mxCell id="l71zYAK4t5FfDWTP5Ww3-4" value="&lt;span style=&quot;color: rgb(184, 191, 198); font-family: Monaco, Consolas, &amp;quot;Andale Mono&amp;quot;, &amp;quot;DejaVu Sans Mono&amp;quot;, monospace; orphans: 4; text-align: left; white-space-collapse: preserve; background-color: rgba(0, 0, 0, 0.05);&quot;&gt;TCPTransport&lt;/span&gt;" style="rounded=0;whiteSpace=wrap;html=1;fontSize=13;fillColor=#a20025;fontColor=#ffffff;strokeColor=#6F0000;" vertex="1" parent="1">
          <mxGeometry x="275" y="240" width="100" height="20" as="geometry" />
        </mxCell>
      </root>
    </mxGraphModel>
  </diagram>
</mxfile>
